HIERARCHY
ROOT root
{
	OFFSET	0	13.1	24.9
	CHANNELS 6  Xposition Yposition Zposition Xrotation Yrotation Zrotation
	JOINT spine_1
	{
		OFFSET	0	9.99999	0
		CHANNELS 3  Xrotation Yrotation Zrotation
		JOINT spine_2
		{
			OFFSET	0	112	-10
			CHANNELS 3  Xrotation Yrotation Zrotation
			JOINT spine_3
			{
				OFFSET	0	206.5	19.3
				CHANNELS 3  Xrotation Yrotation Zrotation
				JOINT spine_4
				{
					OFFSET	0	110.4	14.6
					CHANNELS 3  Xrotation Yrotation Zrotation
					JOINT neck_1
					{
						OFFSET	0	71.8	-50.3
						CHANNELS 3  Xrotation Yrotation Zrotation
						JOINT neck_2
						{
							OFFSET	0	86.2	-25.8
							CHANNELS 3  Xrotation Yrotation Zrotation
							JOINT head_ee
							{
								OFFSET	0	179.8	-8.7
								CHANNELS 3  Xrotation Yrotation Zrotation
								End Site
								{
									OFFSET	1	0	0
								}
							}
						}
					}
					JOINT left_clavicle
					{
						OFFSET	-43.2	22.4	-70.8
						CHANNELS 3  Xrotation Yrotation Zrotation
						JOINT left_shoulder
						{
							OFFSET	-93.9	-5.79999	48.7
							CHANNELS 3  Xrotation Yrotation Zrotation
							JOINT left_elbow
							{
								OFFSET	-291.4	-30.8	15.2
								CHANNELS 3  Xrotation Yrotation Zrotation
								JOINT left_lowarm_twist
								{
									OFFSET	-110.7	-3.89999	13.6
									CHANNELS 3  Xrotation Yrotation Zrotation
									JOINT left_hand
									{
										OFFSET	-110.7	-3.89999	13.6
										CHANNELS 3  Xrotation Yrotation Zrotation
										JOINT left_ee
										{
											OFFSET	-80.8	-5.10001	12.1
											CHANNELS 3  Xrotation Yrotation Zrotation
											End Site
											{
												OFFSET	1	0	0
											}
										}
									}
								}
							}
						}
					}
					JOINT right_clavicle
					{
						OFFSET	43.2	22.4	-70.8
						CHANNELS 3  Xrotation Yrotation Zrotation
						JOINT right_shoulder
						{
							OFFSET	93.9	-5.79999	48.7
							CHANNELS 3  Xrotation Yrotation Zrotation
							JOINT right_elbow
							{
								OFFSET	291.4	-30.8	15.2
								CHANNELS 3  Xrotation Yrotation Zrotation
								JOINT right_lowarm_twist
								{
									OFFSET	110.7	-3.89999	13.6
									CHANNELS 3  Xrotation Yrotation Zrotation
									JOINT right_hand
									{
										OFFSET	110.7	-3.89999	13.6
										CHANNELS 3  Xrotation Yrotation Zrotation
										JOINT right_ee
										{
											OFFSET	80.8	-5.10001	12.1
											CHANNELS 3  Xrotation Yrotation Zrotation
											End Site
											{
												OFFSET	1	0	0
											}
										}
									}
								}
							}
						}
					}
				}
			}
		}
	}
	JOINT left_hip
	{
		OFFSET	-82.8	-127.5	0.300001
		CHANNELS 3  Xrotation Yrotation Zrotation
		JOINT left_knee
		{
			OFFSET	-28.2	-396.7	2.2
			CHANNELS 3  Xrotation Yrotation Zrotation
			JOINT left_ankle
			{
				OFFSET	-11.7	-411.3	35.4
				CHANNELS 3  Xrotation Yrotation Zrotation
				JOINT left_toes
				{
					OFFSET	0	-60	-88.6
					CHANNELS 3  Xrotation Yrotation Zrotation
					JOINT left_foot_ee
					{
						OFFSET	-22.5	-16.5	-42.2
						CHANNELS 3  Xrotation Yrotation Zrotation
						End Site
						{
							OFFSET	1	0	0
						}
					}
				}
			}
		}
	}
	JOINT right_hip
	{
		OFFSET	82.8	-127.5	0.300001
		CHANNELS 3  Xrotation Yrotation Zrotation
		JOINT right_knee
		{
			OFFSET	28.2	-396.7	2.2
			CHANNELS 3  Xrotation Yrotation Zrotation
			JOINT right_ankle
			{
				OFFSET	11.7	-411.3	35.4
				CHANNELS 3  Xrotation Yrotation Zrotation
				JOINT right_toes
				{
					OFFSET	0	-60	-88.6
					CHANNELS 3  Xrotation Yrotation Zrotation
					JOINT right_foot_ee
					{
						OFFSET	22.5	-16.5	-42.2
						CHANNELS 3  Xrotation Yrotation Zrotation
						End Site
						{
							OFFSET	1	0	0
						}
					}
				}
			}
		}
	}
}
MOTION
Frames: 6
Frame Time: 0.02
2519.33 719.783 -711.643 167.495 -85.1112 177.792 1.78912 -0.840038 -5.06949 1.80326 -0.516183 -5.11251 1.84984 0.405111 -5.12249 1.81348 -0.407884 -5.12227 -11.3307 2.16198 7.62796 -11.1666 -0.914427 7.94904 -0.0 0.0 -0.0 9.39623 0.958079 18.3741 -12.5336 -32.9009 62.4125 1.02119 -26.8329 0.243599 65.9264 -2.32899 -7.62659 -0.818126 14.5364 0.862581 -0.0 0.0 -0.0 -9.60202 -4.50659 17.8267 -5.12549 29.8133 -72.3419 1.56687 37.8152 -0.536722 9.0921 -0.230514 1.13734 1.22674 2.44545 -7.22296 0.0 0.0 0.0 0.467802 -8.9937 -2.75671 -3.13162 0.116212 0.466494 36.1602 26.851 -4.84145 28.3838 -0.0 -0.0 -0.0 0.0 -0.0 17.2503 -2.55048 -5.38616 -59.6804 2.16557 -8.49014 -24.892 -25.4482 -3.91126 -9.82416 0.0 0.0 0.0 0.0 0.0 
2529.04 719.93 -712.019 165.522 -83.7492 176.141 1.7827 -0.809919 -5.2348 1.79781 -0.475649 -5.27557 1.8421 0.475093 -5.27562 1.80347 -0.362858 -5.2845 -12.4507 3.20855 7.95777 -12.2732 1.01814 8.54488 -0.0 0.0 -0.0 9.5944 -0.204733 18.8287 -11.9081 -32.2085 61.503 1.07516 -28.039 0.268463 67.0683 -2.44197 -7.71982 -0.521563 14.2118 2.57069 -0.0 0.0 -0.0 -9.89666 -4.85868 18.3128 -6.58476 31.1447 -71.89 1.48366 36.3122 -0.486568 8.54497 -0.221773 1.06799 1.24893 3.2074 -7.0584 0.0 0.0 0.0 -1.14702 -7.50074 -3.36544 -2.68998 0.101372 0.400341 34.7945 26.1555 -4.67395 27.7358 -0.0 -0.0 -0.0 0.0 -0.0 18.4901 1.4598 -8.33079 -58.9822 2.09109 -8.41235 -24.7632 -29.1671 -3.97743 -13.3419 0.0 0.0 0.0 0.0 0.0 
2540.12 720.575 -709.3 166.866 -82.0229 178.277 1.95287 -0.733002 -5.52175 1.96974 -0.380708 -5.55706 2.00625 0.603547 -5.53735 1.96359 -0.277151 -5.56316 -13.7234 4.32854 8.09857 -13.5459 3.26019 9.02703 -0.0 0.0 -0.0 9.75419 -1.23703 19.1993 -11.0685 -32.0386 61.2167 1.13007 -29.2394 0.294786 70.319 -2.77354 -7.97276 -0.0163361 13.4996 5.44449 -0.0 0.0 -0.0 -9.79997 -5.23635 17.9876 -6.66004 30.8984 -72.2424 1.25108 31.7872 -0.356242 7.44137 -0.202129 0.928393 1.08249 4.24566 -5.49972 0.0 0.0 0.0 -1.71984 -3.39504 -3.99882 -2.65762 0.100265 0.395497 33.1918 26.4107 -4.50652 28.9675 -0.0 -0.0 -0.0 0.0 -0.0 16.7028 2.28395 -9.67201 -55.6367 1.7477 -8.02748 -24.9028 -29.9786 -4.02159 -15.0519 0.0 0.0 0.0 0.0 0.0 
2546.01 720.404 -700.356 168.924 -81.5306 -179.46 1.94009 -0.71151 -5.61989 1.95758 -0.353044 -5.65363 1.99199 0.649395 -5.62738 1.94791 -0.246024 -5.65928 -15.2442 6.58822 9.44693 -15.0328 7.03418 11.0868 -0.0 0.0 -0.0 10.3204 -3.94031 20.4808 -10.901 -29.8544 58.6847 1.19074 -30.5333 0.325014 74.6609 -3.23781 -8.28062 0.550134 14.2419 9.30308 -0.0 0.0 -0.0 -9.56426 -5.38972 17.4577 -6.74826 31.7249 -73.5003 1.11676 28.9509 -0.288312 6.4131 -0.181408 0.798677 0.993002 4.25412 -4.89108 0.0 0.0 0.0 -4.0525 -0.221466 -4.50666 2.31769 -0.102357 -0.340887 32.0823 26.264 -4.3782 28.8705 -0.0 -0.0 -0.0 0.0 -0.0 17.3616 2.89342 -11.3065 -49.5626 1.18429 -7.2808 -25.4588 -30.0391 -4.11304 -21.0271 0.0 0.0 0.0 0.0 0.0 
2553.8 722.546 -695.472 166.217 -81.091 178.17 1.99505 -0.713161 -5.85024 2.01401 -0.340108 -5.88361 2.04814 0.697199 -5.85216 2.00046 -0.234134 -5.88876 -17.5318 7.45291 10.3936 -17.3031 8.60884 12.4585 -0.0 0.0 -0.0 10.6484 -5.27889 21.22 -10.7973 -28.2653 57.0982 1.26459 -32.0634 0.363387 76.8928 -3.48519 -8.425 0.925351 13.2645 11.3326 -0.0 0.0 -0.0 -9.47161 -6.62262 16.8589 -7.77433 32.0334 -73.586 1.06349 27.7804 -0.263001 5.97435 -0.171858 0.743444 0.722106 3.70152 -3.29388 0.0 0.0 0.0 -5.31093 1.9257 -5.21761 3.79931 -0.174998 -0.556573 31.3575 26.3285 -4.29772 29.2426 -0.0 -0.0 -0.0 0.0 -0.0 17.7865 -1.41899 -11.8952 -43.3506 0.693573 -6.46085 -24.808 -29.6993 -3.99872 -22.848 0.0 0.0 0.0 0.0 0.0 
2559.06 721.715 -695.139 169.142 -79.6296 -178.473 1.94565 -0.643511 -6.11337 1.96639 -0.253947 -6.14179 1.99285 0.833946 -6.0904 1.94116 -0.136503 -6.14551 -17.7962 7.64089 9.60479 -17.6317 9.45708 11.8261 -0.0 0.0 -0.0 10.8218 -5.16658 21.5922 -9.42437 -26.9942 56.2499 1.48217 -36.2846 0.485683 79.7028 -3.80432 -8.59293 1.29568 11.7163 13.1713 -0.0 0.0 -0.0 -9.07039 -6.19854 16.203 -8.21951 31.994 -73.7592 0.804245 21.7222 -0.154309 5.75722 -0.166975 0.716137 0.488231 4.28919 -1.47159 0.0 0.0 0.0 -6.99415 2.86325 -5.40091 5.80525 -0.282206 -0.845516 31.4826 24.9686 -4.27581 28.0965 -0.0 -0.0 -0.0 0.0 -0.0 19.8075 -0.982386 -13.4198 -35.6534 0.213644 -5.38025 -25.2018 -29.3855 -4.05367 -26.1307 0.0 0.0 0.0 0.0 0.0 
